PathFileType	4	(X/Y/Z)	 New Session 107.trc
DataRate	CameraRate	NumFrames	NumMarkers	Units	OrigDataRate	OrigDataStartFrame	OrigNumFrames
100	100	19	14	m	100	228	909
Frame#	Time	C7			T8			IJ			PX			AA			AC			AI			TS			SC			GH			LE			ME			US			RS			
		X1	Y1	Z1	X2	Y2	Z2	X3	Y3	Z3	X4	Y4	Z4	X5	Y5	Z5	X6	Y6	Z6	X7	Y7	Z7	X8	Y8	Z8	X9	Y9	Z9	X10	Y10	Z10	X11	Y11	Z11	X12	Y12	Z12	X13	Y13	Z13	X14	Y14	Z14	
228	2.2800	0.010289	0.106463	0.160113	0.008023	-0.105813	0.235001	-0.003176	-0.000258	-0.004035	0.003879	-0.142814	-0.069592	0.204112	0.007674	0.154693	0.161038	0.048447	0.079634	0.088137	0.033301	0.205416	0.089098	-0.085353	0.241702	0.021585	0.008521	0.001262	0.218886	0.020500	0.117042	0.329647	-0.248598	0.085581	0.253219	-0.305597	0.062912	0.421219	-0.375085	-0.150686	0.425230	-0.297286	-0.162867	
229	2.2900	0.010026	0.106494	0.159871	0.007762	-0.105783	0.234807	-0.003173	-0.000258	-0.004235	0.003846	-0.142823	-0.069803	0.203771	0.007868	0.154808	0.160929	0.048662	0.079647	0.087776	0.033331	0.205306	0.088809	-0.085347	0.241447	0.021572	0.008511	0.001125	0.218650	0.020806	0.117263	0.330500	-0.247854	0.087142	0.254692	-0.304952	0.063042	0.427358	-0.373029	-0.147753	0.431566	-0.295120	-0.159387	
230	2.3000	0.009753	0.106528	0.159637	0.007500	-0.105757	0.234609	-0.003157	-0.000245	-0.004444	0.003811	-0.142833	-0.070017	0.203414	0.008075	0.154943	0.160865	0.048929	0.079672	0.087409	0.033369	0.205180	0.088461	-0.085361	0.241149	0.021552	0.008505	0.000978	0.218389	0.021142	0.117502	0.331372	-0.247079	0.088781	0.256223	-0.304301	0.063283	0.433503	-0.371000	-0.144597	0.437841	-0.293034	-0.155715	
231	2.3100	0.009470	0.106560	0.159407	0.007231	-0.105739	0.234407	-0.003138	-0.000227	-0.004672	0.003779	-0.142842	-0.070234	0.203047	0.008290	0.155104	0.160806	0.049218	0.079710	0.087042	0.033406	0.205029	0.088066	-0.085394	0.240815	0.021510	0.008504	0.000768	0.218100	0.021500	0.117763	0.332234	-0.246274	0.090506	0.257780	-0.303646	0.063541	0.439606	-0.368989	-0.141229	0.444060	-0.291027	-0.151848	
232	2.3200	0.009175	0.106586	0.159181	0.006957	-0.105732	0.234203	-0.003123	-0.000210	-0.004917	0.003750	-0.142850	-0.070454	0.202674	0.008516	0.155292	0.160679	0.049479	0.079749	0.086694	0.033438	0.204867	0.087661	-0.085430	0.240485	0.021451	0.008493	0.000518	0.217793	0.021873	0.118047	0.333069	-0.245445	0.092323	0.259341	-0.302984	0.063753	0.445633	-0.367000	-0.137648	0.450247	-0.289075	-0.147767	
233	2.3300	0.008866	0.106604	0.158958	0.006679	-0.105730	0.233998	-0.003116	-0.000199	-0.005176	0.003726	-0.142856	-0.070675	0.202291	0.008761	0.155506	0.160449	0.049705	0.079780	0.086355	0.033445	0.204721	0.087287	-0.085457	0.240210	0.021385	0.008460	0.000286	0.217477	0.022254	0.118349	0.333878	-0.244598	0.094226	0.260897	-0.302309	0.063899	0.451579	-0.365032	-0.133847	0.456436	-0.287139	-0.143440	
234	2.3400	0.008549	0.106617	0.158736	0.006402	-0.105721	0.233793	-0.003121	-0.000197	-0.005441	0.003709	-0.142860	-0.070898	0.201898	0.009033	0.155735	0.160152	0.049937	0.079800	0.086012	0.033426	0.204594	0.086966	-0.085464	0.240017	0.021326	0.008412	0.000115	0.217159	0.022642	0.118660	0.334670	-0.243737	0.096197	0.262442	-0.301614	0.064003	0.457494	-0.363082	-0.129822	0.462628	-0.285203	-0.138858	
235	2.3500	0.008232	0.106629	0.158516	0.006130	-0.105697	0.233584	-0.003143	-0.000198	-0.005709	0.003699	-0.142862	-0.071121	0.201497	0.009330	0.155961	0.159851	0.050234	0.079820	0.085662	0.033403	0.204475	0.086698	-0.085451	0.239898	0.021289	0.008380	-0.000005	0.216843	0.023036	0.118971	0.335444	-0.242860	0.098218	0.263971	-0.300891	0.064121	0.463438	-0.361151	-0.125575	0.468799	-0.283281	-0.134033	
236	2.3600	0.007926	0.106643	0.158298	0.005865	-0.105663	0.233366	-0.003184	-0.000198	-0.005973	0.003696	-0.142863	-0.071344	0.201092	0.009645	0.156167	0.159584	0.050603	0.079847	0.085308	0.033386	0.204370	0.086464	-0.085429	0.239811	0.021276	0.008388	-0.000145	0.216534	0.023441	0.119270	0.336189	-0.241964	0.100273	0.265479	-0.300135	0.064308	0.469391	-0.359255	-0.121105	0.474919	-0.281387	-0.128984	
237	2.3700	0.007634	0.106661	0.158081	0.005609	-0.105631	0.233139	-0.003241	-0.000194	-0.006230	0.003699	-0.142866	-0.071564	0.200693	0.009963	0.156344	0.159348	0.050992	0.079888	0.084943	0.033379	0.204275	0.086243	-0.085406	0.239713	0.021262	0.008434	-0.000387	0.216234	0.023858	0.119550	0.336896	-0.241049	0.102367	0.266964	-0.299345	0.064599	0.475281	-0.357406	-0.116411	0.480969	-0.279529	-0.123726	
238	2.3800	0.007353	0.106680	0.157859	0.005359	-0.105604	0.232905	-0.003305	-0.000187	-0.006474	0.003708	-0.142871	-0.071780	0.200301	0.010270	0.156500	0.159126	0.051337	0.079949	0.084573	0.033387	0.204161	0.086023	-0.085387	0.239593	0.021221	0.008486	-0.000712	0.215933	0.024286	0.119818	0.337558	-0.240122	0.104508	0.268424	-0.298525	0.065011	0.481078	-0.355600	-0.111488	0.486943	-0.277712	-0.118266	
239	2.3900	0.007075	0.106696	0.157627	0.005111	-0.105579	0.232672	-0.003369	-0.000181	-0.006706	0.003722	-0.142881	-0.071992	0.199909	0.010560	0.156657	0.158908	0.051628	0.080027	0.084213	0.033395	0.204025	0.085792	-0.085374	0.239442	0.021155	0.008521	-0.001033	0.215618	0.024723	0.120090	0.338167	-0.239199	0.106699	0.269860	-0.297679	0.065546	0.486794	-0.353829	-0.106339	0.492836	-0.275943	-0.112608	
240	2.4000	0.006790	0.106702	0.157379	0.004857	-0.105556	0.232445	-0.003422	-0.000178	-0.006931	0.003738	-0.142896	-0.072199	0.199505	0.010837	0.156835	0.158693	0.051901	0.080120	0.083875	0.033396	0.203890	0.085540	-0.085370	0.239267	0.021083	0.008545	-0.001307	0.215282	0.025162	0.120380	0.338712	-0.238297	0.108929	0.271281	-0.296818	0.066196	0.492427	-0.352097	-0.100998	0.498638	-0.274226	-0.106756	
241	2.4100	0.006495	0.106696	0.157108	0.004584	-0.105529	0.232221	-0.003458	-0.000175	-0.007162	0.003758	-0.142918	-0.072403	0.199078	0.011111	0.157045	0.158487	0.052196	0.080222	0.083541	0.033401	0.203777	0.085253	-0.085377	0.239082	0.021023	0.008566	-0.001555	0.214923	0.025597	0.120694	0.339181	-0.237422	0.111185	0.272708	-0.295951	0.066942	0.497939	-0.350410	-0.095514	0.504334	-0.272558	-0.100706	
242	2.4200	0.006189	0.106682	0.156817	0.004271	-0.105492	0.232002	-0.003474	-0.000166	-0.007415	0.003782	-0.142946	-0.072606	0.198627	0.011400	0.157283	0.158287	0.052527	0.080325	0.083186	0.033413	0.203673	0.084918	-0.085392	0.238885	0.021015	0.008591	-0.001827	0.214548	0.026032	0.121026	0.339565	-0.236575	0.113459	0.274156	-0.295084	0.067758	0.503274	-0.348759	-0.089920	0.509909	-0.270921	-0.094451	
243	2.4300	0.005874	0.106677	0.156515	0.003909	-0.105442	0.231787	-0.003470	-0.000146	-0.007698	0.003809	-0.142979	-0.072812	0.198165	0.011712	0.157532	0.158083	0.052884	0.080421	0.082801	0.033438	0.203555	0.084525	-0.085417	0.238657	0.021119	0.008611	-0.002153	0.214169	0.026471	0.121366	0.339868	-0.235747	0.115751	0.275624	-0.294220	0.068607	0.508397	-0.347131	-0.084226	0.515358	-0.269285	-0.087983	
244	2.4400	0.005552	0.106697	0.156220	0.003512	-0.105379	0.231575	-0.003445	-0.000121	-0.008009	0.003843	-0.143019	-0.073024	0.197706	0.012045	0.157773	0.157866	0.053244	0.080502	0.082382	0.033476	0.203414	0.084086	-0.085445	0.238385	0.021373	0.008620	-0.002525	0.213797	0.026912	0.121706	0.340096	-0.234939	0.118065	0.277099	-0.293362	0.069461	0.513314	-0.345521	-0.078425	0.520678	-0.267634	-0.081302	
245	2.4500	0.005224	0.106741	0.155938	0.003122	-0.105310	0.231354	-0.003402	-0.000097	-0.008334	0.003885	-0.143062	-0.073245	0.197259	0.012387	0.158000	0.157632	0.053587	0.080572	0.081923	0.033526	0.203261	0.083641	-0.085461	0.238098	0.021713	0.008617	-0.002901	0.213439	0.027351	0.122044	0.340258	-0.234155	0.120403	0.278562	-0.292506	0.070302	0.518092	-0.343940	-0.072466	0.525864	-0.265982	-0.074420	
246	2.4600	0.004900	0.106798	0.155660	0.002788	-0.105248	0.231117	-0.003348	-0.000081	-0.008656	0.003936	-0.143109	-0.073476	0.196818	0.012723	0.158218	0.157383	0.053910	0.080640	0.081463	0.033584	0.203107	0.083228	-0.085449	0.237831	0.021983	0.008602	-0.003219	0.213089	0.027781	0.122385	0.340357	-0.233392	0.122767	0.279994	-0.291648	0.071136	0.522777	-0.342394	-0.066338	0.530892	-0.264374	-0.067364	
